<?xml version="1.0" encoding="UTF-8"?>
<svg id="Ebene_2" data-name="Ebene 2" xmlns="http://www.w3.org/2000/svg" viewBox="0 0 12.97 12.95">
  <g id="Ebene_1-2" data-name="Ebene 1">
    <path d="m3.24,6.48c-1.78,0-3.24-1.46-3.24-3.24S1.46,0,3.24,0s3.24,1.46,3.24,3.24-1.46,3.24-3.24,3.24Zm9.73,0c0,3.56-2.91,6.48-6.48,6.48S.02,10.04.02,6.48h3.24c0,1.78,1.46,3.24,3.24,3.24s3.24-1.46,3.24-3.24h3.24Zm-6.49-3.24c0-1.78,1.46-3.24,3.24-3.24s3.24,1.46,3.24,3.24-1.46,3.24-3.24,3.24-3.24-1.46-3.24-3.24Z"/>
  </g>
</svg>